<?xml version="1.0" encoding="utf-8"?>
<!-- Generator: Adobe Illustrator 27.8.1, SVG Export Plug-In . SVG Version: 6.00 Build 0)  -->
<svg version="1.1" id="LOGO" xmlns="http://www.w3.org/2000/svg" xmlns:xlink="http://www.w3.org/1999/xlink" x="0px" y="0px"
	 viewBox="0 0 67 53.7" style="enable-background:new 0 0 67 53.7;" xml:space="preserve">
<style type="text/css">
	.st0{fill:#F3F3F3;}
	.stuff1{animation: transitionUp 3.45s infinite ease-in-out;}
	.stuff2{animation: transitionDown 3.45s infinite ease-in-out;}
	.stuff3{animation: transitionUp 3.45s infinite ease-in-out;}
	.stuff4{animation: transitionUpDown 3.45s infinite ease-in-out;}
	.stuff5{animation: transitionUp 3.45s infinite ease-in-out;}
	.stuff6{animation: transitionDown 3.45s infinite ease-in-out;}
	.stuff7{animation: transitionUp 3.45s infinite ease-in-out;}




  
  
  @keyframes transitionDown {
    0% {
      transform: translateY(0%);
    }
    10% {
      transform: translateY(-5%);
    }
	25%{
		transform: translateY(10%);
	} 
	40%{
		transform: translateY(10%);
	}
	70%{
		transform: translateY(0%);
	}
	100% {
      transform: translateY(0%);
	}
  }
 
  @keyframes transitionUp {
    0% {
      transform: translateY(0%);
    }
    10% {
      transform: translateY(5%);
    }
	25%{
		transform: translateY(-10%);
	}
	40%{
		transform: translateY(-10%);
	}
	70%{
		transform: translateY(0%);
	}
	100% {
      transform: translateY(0%);
	}
  }
   
  @keyframes transitionUpDown {
    0% {
      transform: translateY(0%);
    }
    10% {
      transform: translateY(10%);
    }
	25%{
		transform: translateY(-8%);
	}
	40%{
		transform: translateY(0%);
	}
	100% {
      transform: translateY(0%);
	}
  }

</style>
<g id="igghysound">
	<path class="st0" d="M4.4,47.1h0.8v5.8H4.4V47.1z"/>
	<path class="st0" d="M11,49.9h0.8v2.3c-0.6,0.5-1.4,0.7-2.2,0.7c-1.8,0-3.1-1.2-3.1-3c0-1.7,1.3-3,3.1-3c0.9,0,1.7,0.3,2.2,0.9
		l-0.5,0.5c-0.5-0.5-1-0.7-1.7-0.7c-1.3,0-2.3,0.9-2.3,2.2c0,1.3,1,2.2,2.3,2.2c0.5,0,0.9-0.1,1.4-0.4V49.9z"/>
	<path class="st0" d="M17.4,49.9h0.8v2.3c-0.6,0.5-1.4,0.7-2.2,0.7c-1.8,0-3.1-1.2-3.1-3c0-1.7,1.3-3,3.1-3c0.9,0,1.7,0.3,2.2,0.9
		l-0.5,0.5c-0.5-0.5-1-0.7-1.7-0.7c-1.3,0-2.3,0.9-2.3,2.2c0,1.3,1,2.2,2.3,2.2c0.5,0,0.9-0.1,1.4-0.4V49.9z"/>
	<path class="st0" d="M24.7,47.1v5.8h-0.8v-2.6h-3.3v2.6h-0.8v-5.8h0.8v2.5h3.3v-2.5H24.7z"/>
	<path class="st0" d="M28.7,50.9v2h-0.8v-2l-2.3-3.8h0.9l1.9,3.1l1.9-3.1H31L28.7,50.9z"/>
	<path class="st0" d="M31.2,52.2l0.3-0.6c0.4,0.4,1.2,0.7,1.9,0.7c1,0,1.4-0.4,1.4-0.9c0-1.4-3.5-0.5-3.5-2.7c0-0.9,0.7-1.7,2.2-1.7
		c0.7,0,1.4,0.2,1.9,0.5l-0.3,0.7c-0.5-0.3-1.1-0.5-1.6-0.5c-1,0-1.4,0.4-1.4,0.9c0,1.4,3.5,0.5,3.5,2.7c0,0.9-0.7,1.6-2.2,1.6
		C32.5,52.9,31.6,52.6,31.2,52.2z"/>
	<path class="st0" d="M36.4,50c0-1.7,1.3-3,3.1-3c1.8,0,3.1,1.3,3.1,3c0,1.7-1.3,3-3.1,3C37.7,52.9,36.4,51.7,36.4,50z M41.7,50
		c0-1.3-1-2.2-2.2-2.2c-1.3,0-2.3,0.9-2.3,2.2c0,1.3,1,2.2,2.3,2.2C40.7,52.2,41.7,51.3,41.7,50z"/>
	<path class="st0" d="M43.7,50.4v-3.3h0.8v3.3c0,1.3,0.6,1.9,1.6,1.9c1,0,1.6-0.6,1.6-1.9v-3.3h0.8v3.3c0,1.7-0.9,2.6-2.5,2.6
		C44.7,52.9,43.7,52,43.7,50.4z"/>
	<path class="st0" d="M55.3,47.1v5.8h-0.7l-3.5-4.3v4.3h-0.8v-5.8H51l3.5,4.3v-4.3H55.3z"/>
	<path class="st0" d="M57,47.1h2.4c1.9,0,3.1,1.2,3.1,2.9c0,1.7-1.3,2.9-3.1,2.9H57V47.1z M59.4,52.1c1.4,0,2.4-0.9,2.4-2.2
		c0-1.3-0.9-2.2-2.4-2.2h-1.6v4.4H59.4z"/>
</g>
<path id="A1" class="st0" d="M16.7,16.4c0,1.4,0,2.9,0,4.3c0,0.6-0.3,1-0.8,1.1c-0.7,0.1-1.2-0.3-1.2-1c0-2.9,0-5.8,0-8.7
	c0-0.7,0.4-1,1-1c0.6,0,1,0.4,1,1C16.7,13.6,16.7,15,16.7,16.4z"/>
<path id="A2" class="st0" d="M20.6,33.3c0-0.9,0-1.7,0-2.6c0-0.6,0.4-1.1,1-1.1c0.5,0,1,0.4,1,1.1c0,1.8,0,3.5,0,5.3
	c0,0.6-0.4,1-1,1c-0.6,0-1-0.4-1-1C20.6,35.1,20.6,34.2,20.6,33.3z"/>
<path id="A3" class="st0" d="M28.5,8.2c0,1,0,1.9,0,2.9c0,0.7-0.4,1.1-1,1.1c-0.6,0-1-0.4-1-1.1c0-1.9,0-3.9,0-5.8
	c0-0.7,0.4-1.1,1-1.1c0.6,0,1,0.4,1,1.1C28.6,6.3,28.5,7.3,28.5,8.2z"/>
<path id="A4" class="st0" d="M38.4,8.2c0-0.9,0-1.9,0-2.8c0-0.7,0.4-1.1,1-1.1c0.6,0,1,0.4,1,1.1c0,1.9,0,3.8,0,5.7
	c0,0.7-0.4,1.2-1,1.2c-0.6,0-1-0.5-1-1.2C38.4,10.1,38.4,9.1,38.4,8.2z"/>
<path id="A5" class="st0" d="M46.3,30.6c-0.1-0.6-0.4-0.9-0.9-0.9c-0.5,0-0.9,0.4-1,0.9v5.5c0,0.6,0.4,0.9,0.9,0.9
	c0.6,0,0.9-0.4,1-0.9V30.6z"/>
<path id="A6" class="st0" d="M50.3,16.4c0-1.4,0-2.8,0-4.2c0-0.7,0.4-1.1,1-1.1c0.6,0,1,0.4,1,1.1c0,2.8,0,5.6,0,8.5
	c0,0.8-0.4,1.2-1,1.1c-0.6,0-0.9-0.4-0.9-1.2C50.3,19.2,50.3,17.8,50.3,16.4z"/>
<g id="B1">
	<path class="st0" d="M16.6,24.5c-0.1-0.4-0.5-0.7-0.9-0.7c-0.5,0-0.9,0.4-1,0.9c0,0.4,0,0.8,0,1.2c0,0.1,0,0.1,0,0.2v5.3
		c0,0.1,0,0.3,0,0.4c0,0.2,0,0.4,0,0.6c0,0.7,0.4,1.1,1,1.1c0.5,0,0.8-0.3,0.9-0.7V24.5z"/>
	<path id="stuff stuff1" class="st0 stuff1" d="M17,26.9L17,26.9c0,0-0.4-0.2-0.4-1c-0.3,0.3-0.3,0.4-0.3,0.4l0,0.5H15l0-0.5c0,0,0-0.1-0.3-0.4
		c0,0.8-0.4,1-0.4,1l0,0c-0.2,0.1-0.4,0.4-0.4,0.6v2.4c0,0.3,0.2,0.5,0.4,0.6l0,0c0,0,0.5,0.2,0.4,1c0.3-0.3,0.3-0.4,0.3-0.4l0-0.5
		h1.3l0,0.5c0,0,0,0.1,0.3,0.4c0-0.8,0.4-1,0.4-1l0,0c0.2-0.1,0.4-0.3,0.4-0.6v-2.4C17.4,27.3,17.3,27,17,26.9z"/>
</g>
<g id="B2">
	<path class="st0" d="M22.6,8.6c-0.1-0.6-0.5-1-1.1-0.9c-0.4,0-0.7,0.3-0.8,0.8V27c0,0.1,0,0.2,0.1,0.2c0.3,0.4,0.6,0.5,1.1,0.5
		c0.4-0.1,0.6-0.4,0.7-0.9V8.6z"/>
	<path id="stuff stuff2" class="st0 stuff2" d="M23,16.5L23,16.5c0,0-0.4-0.2-0.4-1c-0.3,0.3-0.3,0.4-0.3,0.4l0,0.5H21l0-0.5c0,0,0-0.1-0.3-0.4
		c0,0.8-0.4,1-0.4,1l0,0c-0.2,0.1-0.4,0.4-0.4,0.6v2.4c0,0.3,0.2,0.5,0.4,0.6l0,0c0,0,0.5,0.2,0.4,1c0.3-0.3,0.3-0.4,0.3-0.4l0-0.5
		h1.3l0,0.5c0,0,0,0.1,0.3,0.4c0-0.8,0.4-1,0.4-1l0,0c0.2-0.1,0.4-0.3,0.4-0.6v-2.4C23.4,16.8,23.2,16.6,23,16.5z"/>
</g>
<g id="B3">
	<path class="st0" d="M28.5,15c-0.1-0.6-0.5-0.9-1.1-0.8c-0.5,0-0.7,0.3-0.8,0.9v24.5c0.1,0.6,0.5,0.9,1,0.9c0.5,0,0.8-0.3,0.9-0.8
		V15z"/>
	<path id="stuff stuff3" class="st0 stuff3" d="M28.9,28.6L28.9,28.6c0,0-0.4-0.2-0.4-1c-0.3,0.3-0.3,0.4-0.3,0.4l0,0.5h-1.3l0-0.5
		c0,0,0-0.1-0.3-0.4c0,0.8-0.4,1-0.4,1l0,0c-0 .2,0.1-0.4,0.4-0.4,0.6v2.4c0,0.3,0.2,0.5,0.4,0.6l0,0c0,0,0.5,0.2,0.4,1
		c0.3-0.3,0.3-0.4,0.3-0.4l0-0.5h1.3l0,0.5c0,0,0,0.1,0.3,0.4c0-0.8,0.4-1,0.4-1l0,0c0.2-0.1,0.4-0.3,0.4-0.6v-2.4
		C29.3,29,29.2,28.8,28.9,28.6z"/>
</g>
<g id="B4">
	<path class="st0" d="M34.4,3L34.4,3c0-0.4,0-0.8,0-1.2c0-0.6-0.3-0.9-0.7-1c-0.7-0.2-1.2,0.3-1.2,1c0,0.2,0,0.3,0,0.5h0v18.3
		c0,0.1,0.1,0.2,0.1,0.3c0.3,0.4,0.7,0.5,1.1,0.4c0.4-0.1,0.6-0.4,0.7-0.8V3z"/>
	<path id="stuff stuff4" class="st0 stuff4" d="M34.9,10.9L34.9,10.9c0,0-0.4-0.2-0.4-1c-0.3,0.3-0.3,0.4-0.3,0.4l0,0.5h-1.3l0-0.5
		c0,0,0-0.1-0.3-0.4c0,0.8-0.4,1-0.4,1l0,0c-0.2,0.1-0.4,0.4-0.4,0.6v2.4c0,0.3,0.2,0.5,0.4,0.6l0,0c0,0,0.5,0.2,0.4,1
		c0.3-0.3,0.3-0.4,0.3-0.4l0-0.5h1.3l0,0.5c0,0,0,0.1,0.3,0.4c0-0.8,0.4-1,0.4-1l0,0c0.2-0.1,0.4-0.3,0.4-0.6v-2.4
		C35.3,11.3,35.1,11.1,34.9,10.9z"/>
</g>
<g id="B5">
	<path class="st0" d="M40.4,15c-0.1-0.5-0.5-0.8-1-0.8c-0.5,0-0.8,0.3-0.9,0.8v24.7c0.1,0.3,0.3,0.6,0.6,0.7c0.4,0.1,0.7,0.1,1-0.2
		c0.1-0.1,0.2-0.3,0.2-0.4V15z"/>
	<path id="stuff stuff5" class="st0 stuff5" d="M40.8,28.5L40.8,28.5c0,0-0.4-0.2-0.4-1c-0.3,0.3-0.3,0.4-0.3,0.4l0,0.5h-1.3l0-0.5
		c0,0,0-0.1-0.3-0.4c0,0.8-0.4,1-0.4,1l0,0c-0.2,0.1-0.4,0.4-0.4,0.6v2.4c0,0.3,0.2,0.5,0.4,0.6l0,0c0,0,0.5,0.2,0.4,1
		c0.3-0.3,0.3-0.4,0.3-0.4l0-0.5h1.3l0,0.5c0,0,0,0.1,0.3,0.4c0-0.8,0.4-1,0.4-1l0,0c0.2-0.1,0.4-0.3,0.4-0.6v-2.4
		C41.2,28.8,41,28.6,40.8,28.5z"/>
</g>
<g id="B6">
	<path id="stuff stuff6" class="st0 stuff6" d="M46.7,16.5L46.7,16.5c0,0-0.4-0.2-0.4-1C46,15.8,46,15.9,46,15.9l0,0.5h-1.3l0-0.5
		c0,0,0-0.1-0.3-0.4c0,0.8-0.4,1-0.4,1l0,0c-0.2,0.1-0.4,0.4-0.4,0.6v2.4c0,0.3,0.2,0.5,0.4,0.6l0,0c0,0,0.5,0.2,0.4,1
		c0.3-0.3,0.3-0.4,0.3-0.4l0-0.5H46l0,0.5c0,0,0,0.1,0.3,0.4c0-0.8,0.4-1,0.4-1l0,0c0.2-0.1,0.4-0.3,0.4-0.6v-2.4
		C47.1,16.8,46.9,16.6,46.7,16.5z"/>
	<path class="st0" d="M46.3,8.3c0-0.1,0-0.1,0-0.2c-0.2-0.5-0.6-0.6-1.1-0.5c-0.5,0.1-0.7,0.5-0.7,1V11c0,1.5,0,3,0,4.5
		c0,0,0,0,0,0.1V21c0,0,0,0,0,0.1c0,1.8,0,3.6,0,5.4c0,0.3,0,0.5,0.2,0.8c0.3,0.4,0.7,0.5,1.1,0.4c0.3-0.1,0.6-0.3,0.6-0.6V8.3z"/>
</g>
<g id="B7">
	<path class="st0" d="M52.2,24.4c-0.2-0.6-0.8-0.8-1.4-0.5c-0.4,0.2-0.5,0.6-0.5,1c0,0.3,0,0.7,0,1v5.5c0,0.2,0,0.3,0,0.5
		c0,0.4,0,0.6,0,0.8c0,0.5,0.4,0.9,0.9,1c0.5,0,0.9-0.2,1-0.7V24.4z"/>
	<path id="stuff stuff7" class="st0 stuff7" d="M52.6,26.9L52.6,26.9c0,0-0.4-0.2-0.4-1c-0.3,0.3-0.3,0.4-0.3,0.4l0,0.5h-1.3l0-0.5
		c0,0,0-0.1-0.3-0.4c0,0.8-0.4,1-0.4,1l0,0c-0.2,0.1-0.4,0.4-0.4,0.6v2.4c0,0.3,0.2,0.5,0.4,0.6l0,0c0,0,0.5,0.2,0.4,1
		c0.3-0.3,0.3-0.4,0.3-0.4l0-0.5h1.3l0,0.5c0,0,0,0.1,0.3,0.4c0-0.8,0.4-1,0.4-1l0,0c0.2-0.1,0.4-0.3,0.4-0.6v-2.4
		C53,27.2,52.9,27,52.6,26.9z"/>
</g>
</svg>

